<svg width="160" height="160" viewBox="0 0 160 160" xmlns="http://www.w3.org/2000/svg" role="img" aria-labelledby="title desc">
  <title id="title">Nautilus shell</title>
  <desc id="desc">Simplified nautilus shell spiral used as a decorative brand element.</desc>
  <defs>
    <linearGradient id="shellGradient" x1="0" y1="0" x2="1" y2="1">
      <stop offset="0%" stop-color="#1f3b5b"/>
      <stop offset="100%" stop-color="#f7941d"/>
    </linearGradient>
  </defs>
  <rect width="160" height="160" fill="none"/>
  <g transform="translate(80,80)">
    <path d="M0 0 C 0 -55 55 -55 55 0 C 55 30 30 55 0 55 C -30 55 -55 30 -55 0 C -55 -30 -30 -55 0 -55" fill="url(#shellGradient)" opacity="0.12"/>
    <path d="M0 0 C 0 -40 40 -40 40 0 C 40 22 22 40 0 40 C -22 40 -40 22 -40 0 C -40 -22 -22 -40 0 -40" fill="url(#shellGradient)" opacity="0.18"/>
    <path d="M0 0 C 0 -25 25 -25 25 0 C 25 14 14 25 0 25 C -14 25 -25 14 -25 0 C -25 -14 -14 -25 0 -25" fill="url(#shellGradient)" opacity="0.3"/>
    <circle cx="0" cy="0" r="10" fill="url(#shellGradient)"/>
  </g>
</svg>


